<svg xmlns="http://www.w3.org/2000/svg" width="840" height="460" viewBox="0 0 840 460" role="img">
<title>Pipeline versus warmed HTTP latency</title>
<rect width="840" height="460" fill="#08101a" rx="18"/>
<text x="40" y="44" fill="#f4f7fb" font-size="22" font-family="system-ui">Pipeline versus warmed HTTP latency</text>
<text x="40" y="69" fill="#92a0b3" font-size="13" font-family="system-ui">In-process ASGI only; Docker/container and TCP network latency not measured</text>
<line x1="88" y1="372.00" x2="808" y2="372.00" stroke="#253244" stroke-width="1"/>
<text x="76" y="376.00" text-anchor="end" fill="#748196" font-size="11" font-family="monospace">0 ms</text>
<line x1="88" y1="302.00" x2="808" y2="302.00" stroke="#253244" stroke-width="1"/>
<text x="76" y="306.00" text-anchor="end" fill="#748196" font-size="11" font-family="monospace">2.2863 ms</text>
<line x1="88" y1="232.00" x2="808" y2="232.00" stroke="#253244" stroke-width="1"/>
<text x="76" y="236.00" text-anchor="end" fill="#748196" font-size="11" font-family="monospace">4.5726 ms</text>
<line x1="88" y1="162.00" x2="808" y2="162.00" stroke="#253244" stroke-width="1"/>
<text x="76" y="166.00" text-anchor="end" fill="#748196" font-size="11" font-family="monospace">6.8589 ms</text>
<line x1="88" y1="92.00" x2="808" y2="92.00" stroke="#253244" stroke-width="1"/>
<text x="76" y="96.00" text-anchor="end" fill="#748196" font-size="11" font-family="monospace">9.1452 ms</text>
<rect x="131.20" y="331.41" width="93.60" height="40.59" rx="7" fill="#7ba9ff"/>
<text x="178.00" y="321.41" text-anchor="middle" fill="#f4f7fb" font-size="12" font-family="monospace">1.3259 ms</text>
<text x="178.00" y="400" text-anchor="middle" fill="#c5d0df" font-size="12" font-family="system-ui">Pipeline p50</text>
<rect x="311.20" y="324.47" width="93.60" height="47.53" rx="7" fill="#74f0c1"/>
<text x="358.00" y="314.47" text-anchor="middle" fill="#f4f7fb" font-size="12" font-family="monospace">1.5525 ms</text>
<text x="358.00" y="400" text-anchor="middle" fill="#c5d0df" font-size="12" font-family="system-ui">Pipeline p95</text>
<rect x="491.20" y="306.79" width="93.60" height="65.21" rx="7" fill="#ffc96b"/>
<text x="538.00" y="296.79" text-anchor="middle" fill="#f4f7fb" font-size="12" font-family="monospace">2.1299 ms</text>
<text x="538.00" y="400" text-anchor="middle" fill="#c5d0df" font-size="12" font-family="system-ui">HTTP p50</text>
<rect x="671.20" y="128.52" width="93.60" height="243.48" rx="7" fill="#ff7e82"/>
<text x="718.00" y="118.52" text-anchor="middle" fill="#f4f7fb" font-size="12" font-family="monospace">7.9523 ms</text>
<text x="718.00" y="400" text-anchor="middle" fill="#c5d0df" font-size="12" font-family="system-ui">HTTP p95</text>
</svg>
